<svg xmlns="http://www.w3.org/2000/svg" viewBox="0 0 1000 1000"><defs><style>.cls-1{fill:#ff8ba7;}.cls-2{fill:#33272a;}</style></defs><g id="レイヤー_2" data-name="レイヤー 2"><g id="レイヤー_1-2" data-name="レイヤー 1"><path class="cls-1" d="M500,932.5a432.64,432.64,0,0,1-168.33-831A432.63,432.63,0,0,1,668.33,898.54,429.82,429.82,0,0,1,500,932.5Z"/><path class="cls-2" d="M500,135a363.44,363.44,0,1,1-142,28.63A362.52,362.52,0,0,1,500,135M500,0C223.86,0,0,223.86,0,500s223.86,500,500,500,500-223.86,500-500S776.14,0,500,0Z"/><path class="cls-2" d="M958.05,504.24a356.21,356.21,0,0,1-16.42,34.56L939.36,543l-2.44,4.1c-1.6,2.74-3.18,5.49-4.94,8.13-3.38,5.37-7,10.6-10.66,15.74a277.59,277.59,0,0,1-52.47,54.71,268.3,268.3,0,0,1-66.1,38.44,250.64,250.64,0,0,1-76,17.58,256.49,256.49,0,0,1-79.76-7,281.73,281.73,0,0,1-75.93-31.53,308.35,308.35,0,0,1-66.14-53.48c-2.51-2.63-4.93-5.34-7.36-8.08s-4.76-5.55-7.11-8.37-4.61-5.74-6.91-8.65-4.39-6-6.64-8.94a406.28,406.28,0,0,1-24.28-38.35l128.78-40.5a115.92,115.92,0,0,0,1.79,26.88c.81,4.47,1.83,8.94,3.08,13.37.67,2.19,1.28,4.44,2.07,6.6l1.12,3.31c.36,1.11.84,2.15,1.26,3.24A153.93,153.93,0,0,0,621,578.25a160.46,160.46,0,0,0,105.5,50.94,170.21,170.21,0,0,0,31-.31,175.12,175.12,0,0,0,30.88-6A185.74,185.74,0,0,0,845.59,595c2.16-1.59,4.36-3.14,6.42-4.85s4.25-3.3,6.25-5.1c4.11-3.48,8-7.23,11.78-11,1.85-2,3.75-3.86,5.56-5.86l5.27-6.12,5-6.34c1.63-2.14,3.13-4.38,4.71-6.56,3-4.46,6-9,8.56-13.68,1.38-2.3,2.59-4.71,3.83-7.09l1.82-3.6,1.66-3.67A164.83,164.83,0,0,0,917,490.76Z"/><circle class="cls-2" cx="727.5" cy="443.5" r="62.5"/></g></g></svg>